<svg width="319" height="75" viewBox="0 0 319 75" fill="none" xmlns="http://www.w3.org/2000/svg">
<path d="M38.1803 56.128V18.816H30.3723V53.568C17.4443 48.448 10.5323 41.152 8.29226 29.696C6.94826 22.976 8.22826 14.208 16.2283 10.112C21.0283 7.68 24.9963 7.68 32.4843 7.68H33.8923V0H32.4843C24.6123 0 19.1083 0.0639992 12.5803 3.328C2.85226 8.256 -1.75574 19.264 0.612259 31.232C4.90026 52.544 23.3323 60.928 38.1803 64V56.128Z" fill="black"/>
<path d="M68.5798 0V15.808H50.7238V0H42.6598V64H50.7238V48.384H68.5798V64H76.5798V0H68.5798ZM50.7238 23.104H68.5798V28.48H50.7238V23.104ZM50.7238 41.088V35.776H68.5798V41.088H50.7238Z" fill="black"/>
<path d="M98.1113 0C87.8713 0 79.6793 8.192 79.6793 18.432C79.6793 28.544 87.8713 36.8 98.1113 36.8C108.223 36.8 116.479 28.544 116.479 18.432C116.479 8.192 108.223 0 98.1113 0ZM98.1113 28.736C92.2873 28.736 87.7433 24.128 87.7433 18.432C87.7433 12.608 92.2873 8.064 98.1113 8.064C103.807 8.064 108.415 12.608 108.415 18.432C108.415 24.128 103.807 28.736 98.1113 28.736ZM101.439 43.136C100.223 43.136 98.8153 42.688 97.2153 42.176C93.5673 41.024 88.0633 39.296 83.5833 43.904L89.4713 49.472C90.1753 48.576 91.2633 48.64 94.7833 49.792C96.7673 50.496 99.0073 51.2 101.375 51.2H101.631C104.511 51.2 108.415 50.688 112.383 47.232L107.007 41.28C105.535 42.624 103.935 43.136 101.439 43.136ZM101.439 55.936C100.223 55.936 98.8153 55.488 97.2153 54.976C93.5673 53.76 88.0633 52.096 83.5833 56.704L89.4713 62.272C90.2393 61.376 91.1993 61.504 94.7833 62.656C96.7673 63.296 99.0073 64 101.375 64H101.631C104.447 64 108.479 63.488 112.383 60.096L107.007 54.08C105.535 55.424 103.935 56 101.439 55.936Z" fill="black"/>
<path d="M134.918 24.896C133.702 24.064 132.678 23.296 131.718 22.592C128.39 19.968 126.406 17.024 126.342 14.272C126.278 12.544 126.982 11.072 128.454 9.792C131.014 7.552 134.15 7.552 135.366 8.576L140.742 2.816C136.326 -1.28 128.518 -0.896 123.206 3.904C119.878 6.912 118.278 10.432 118.406 14.592C118.598 19.712 121.542 24.704 126.854 28.8C128.07 29.76 129.094 30.528 130.438 31.424C136.006 35.2 139.654 38.08 139.654 43.136C139.654 46.464 138.31 50.88 135.366 53.12L135.302 53.184C130.182 57.28 120.902 56.128 115.974 55.104L115.91 55.36V63.104C118.662 63.616 121.67 64 124.742 64C130.31 64 135.878 62.848 140.294 59.328C145.606 55.04 147.526 48.256 147.526 43.136C147.526 33.664 140.23 28.48 134.918 24.896Z" fill="black"/>
<path d="M179.821 8.064V0H143.597V8.064H157.677V64H165.741V8.064H179.821Z" fill="black"/>
<path d="M191.123 17.28H194.387V57.408C194.387 58.6453 194.728 59.6267 195.411 60.352C196.136 61.0773 197.118 61.44 198.355 61.44C198.824 61.44 199.379 61.3973 200.019 61.312C200.702 61.184 201.32 61.0133 201.875 60.8L202.515 63.36C201.79 63.6587 200.894 63.8933 199.827 64.064C198.76 64.2773 197.843 64.384 197.075 64.384C195.283 64.384 193.832 63.8507 192.723 62.784C191.656 61.6747 191.123 60.2027 191.123 58.368V17.28ZM215.622 64.64C214.086 64.64 212.656 64.384 211.334 63.872C210.011 63.3173 208.838 62.592 207.814 61.696C206.832 60.7573 206.064 59.6693 205.51 58.432C204.955 57.152 204.678 55.7867 204.678 54.336C204.678 52.8853 205.019 51.5627 205.702 50.368C206.384 49.1733 207.323 48.1493 208.518 47.296C209.755 46.4 211.227 45.7173 212.934 45.248C214.64 44.736 216.518 44.48 218.566 44.48C220.358 44.48 222.15 44.6507 223.942 44.992C225.776 45.2907 227.419 45.7173 228.87 46.272V43.008C228.87 39.8507 227.974 37.3547 226.182 35.52C224.39 33.6427 221.958 32.704 218.885 32.704C217.264 32.704 215.536 33.0453 213.702 33.728C211.91 34.4107 210.075 35.392 208.198 36.672L206.982 34.496C211.248 31.5947 215.302 30.144 219.142 30.144C223.152 30.144 226.31 31.3173 228.614 33.664C230.918 35.968 232.07 39.168 232.07 43.264V59.52C232.07 60.5867 232.539 61.12 233.478 61.12V64C233.264 64.0427 233.03 64.064 232.774 64.064C232.56 64.1067 232.368 64.128 232.198 64.128C231.344 64.128 230.662 63.8507 230.15 63.296C229.638 62.6987 229.339 61.9947 229.254 61.184V58.432C227.718 60.4373 225.755 61.9733 223.366 63.04C220.976 64.1067 218.395 64.64 215.622 64.64ZM216.262 62.08C218.736 62.08 220.998 61.6107 223.046 60.672C225.136 59.7333 226.736 58.496 227.846 56.96C228.528 56.064 228.87 55.2107 228.87 54.4V48.512C227.334 47.9147 225.734 47.4667 224.07 47.168C222.406 46.8693 220.678 46.72 218.885 46.72C217.222 46.72 215.707 46.912 214.342 47.296C212.976 47.6373 211.803 48.128 210.822 48.768C209.84 49.408 209.072 50.1973 208.518 51.136C208.006 52.032 207.75 53.0347 207.75 54.144C207.75 55.2533 207.963 56.2987 208.39 57.28C208.816 58.2613 209.414 59.1147 210.182 59.84C210.95 60.5227 211.846 61.0773 212.87 61.504C213.936 61.888 215.067 62.08 216.262 62.08ZM257.357 64.64C254.754 64.64 252.322 63.9573 250.061 62.592C247.799 61.2267 246.029 59.4773 244.749 57.344V64H241.805V17.28H245.005V37.952C246.583 35.648 248.439 33.7707 250.573 32.32C252.749 30.8693 255.245 30.144 258.061 30.144C260.407 30.144 262.519 30.656 264.397 31.68C266.317 32.6613 267.917 33.984 269.197 35.648C270.519 37.2693 271.522 39.1253 272.205 41.216C272.93 43.264 273.293 45.3547 273.293 47.488C273.293 49.792 272.887 51.9893 272.076 54.08C271.266 56.128 270.135 57.9413 268.685 59.52C267.277 61.056 265.591 62.2933 263.629 63.232C261.709 64.1707 259.618 64.64 257.357 64.64ZM256.717 61.76C258.679 61.76 260.471 61.3547 262.093 60.544C263.714 59.7333 265.101 58.6667 266.253 57.344C267.447 55.9787 268.365 54.4427 269.005 52.736C269.687 51.0293 270.029 49.28 270.029 47.488C270.029 45.6107 269.709 43.8187 269.069 42.112C268.471 40.3627 267.597 38.8267 266.445 37.504C265.335 36.1387 263.991 35.0507 262.413 34.24C260.877 33.4293 259.17 33.024 257.293 33.024C255.885 33.024 254.562 33.28 253.325 33.792C252.087 34.2613 250.935 34.9013 249.869 35.712C248.845 36.5227 247.906 37.4613 247.053 38.528C246.242 39.5947 245.559 40.704 245.005 41.856V52.864C245.133 54.1013 245.602 55.2747 246.413 56.384C247.223 57.4507 248.183 58.3893 249.293 59.2C250.445 59.968 251.682 60.5867 253.005 61.056C254.327 61.5253 255.565 61.76 256.717 61.76Z" fill="black"/>
<path d="M318.333 32.6667C318.333 51.0762 303.409 66 285 66L285 32.6667L318.333 32.6667Z" fill="black"/>
<circle cx="301.667" cy="32.6667" r="16.6667" fill="black"/>
</svg>
