<svg width="441" height="93" viewBox="0 0 441 93" fill="none" xmlns="http://www.w3.org/2000/svg">
<path d="M52.8898 77.809V26.1732H42.0737V74.2662C24.165 67.1807 14.59 57.0838 11.487 41.2299C9.62519 31.9302 11.3983 19.7962 22.4805 14.1278C29.1298 10.7622 34.6265 10.7622 44.9994 10.7622H46.9498V0.133911H44.9994C34.0945 0.133911 26.47 0.222479 17.427 4.7395C3.95114 11.5593 -2.43217 26.7932 0.848142 43.3556C6.78817 72.8491 32.3214 84.4516 52.8898 88.7029V77.809Z" fill="white"/>
<path d="M95.0013 0.133911V22.0105H70.2659V0.133911H59.0951V88.7029H70.2659V67.0921H95.0013V88.7029H106.083V0.133911H95.0013ZM70.2659 32.1073H95.0013V39.5471H70.2659V32.1073ZM70.2659 56.9952V49.644H95.0013V56.9952H70.2659Z" fill="white"/>
<path d="M135.91 0.133911C121.725 0.133911 110.377 11.4707 110.377 25.6418C110.377 39.6357 121.725 51.0611 135.91 51.0611C149.918 51.0611 161.355 39.6357 161.355 25.6418C161.355 11.4707 149.918 0.133911 135.91 0.133911ZM135.91 39.9014C127.842 39.9014 121.548 33.5244 121.548 25.6418C121.548 17.582 127.842 11.2936 135.91 11.2936C143.801 11.2936 150.184 17.582 150.184 25.6418C150.184 33.5244 143.801 39.9014 135.91 39.9014ZM140.52 59.8294C138.836 59.8294 136.885 59.2095 134.669 58.5009C129.616 56.9067 121.991 54.5153 115.785 60.8923L123.942 68.5978C124.917 67.3578 126.424 67.4464 131.3 69.0406C134.048 70.0149 137.151 70.9891 140.432 70.9891H140.786C144.776 70.9891 150.184 70.2806 155.681 65.4979L148.234 57.2609C146.194 59.1209 143.978 59.8294 140.52 59.8294ZM140.52 77.5433C138.836 77.5433 136.885 76.9233 134.669 76.2147C129.616 74.5319 121.991 72.2291 115.785 78.6061L123.942 86.3116C125.005 85.0716 126.335 85.2488 131.3 86.843C134.048 87.7287 137.151 88.7029 140.432 88.7029H140.786C144.687 88.7029 150.273 87.9944 155.681 83.3002L148.234 74.9748C146.194 76.8347 143.978 77.6318 140.52 77.5433Z" fill="white"/>
<path d="M186.897 34.5873C185.213 33.4359 183.794 32.373 182.464 31.3988C177.854 27.7674 175.106 23.6933 175.017 19.8848C174.928 17.4934 175.904 15.4564 177.943 13.685C181.489 10.5851 185.833 10.5851 187.518 12.0022L194.965 4.03095C188.848 -1.63747 178.031 -1.10606 170.673 5.53662C166.063 9.69937 163.846 14.5707 164.024 20.3277C164.29 27.4132 168.368 34.3216 175.726 39.99C177.411 41.3185 178.829 42.3813 180.691 43.6213C188.404 48.8469 193.458 52.8325 193.458 59.8294C193.458 64.435 191.596 70.5463 187.518 73.6462L187.429 73.7348C180.336 79.4032 167.481 77.809 160.655 76.3919L160.566 76.7461V87.463C164.378 88.1715 168.545 88.7029 172.801 88.7029C180.514 88.7029 188.227 87.1087 194.344 82.2374C201.703 76.3033 204.363 66.915 204.363 59.8294C204.363 46.7212 194.256 39.5471 186.897 34.5873Z" fill="white"/>
<path d="M249.1 11.2936V0.133911H198.921V11.2936H218.425V88.7029H229.596V11.2936H249.1Z" fill="white"/>
<path d="M263.862 24.1215H268.406V80.4047C268.406 82.1402 268.882 83.5166 269.832 84.5339C270.842 85.5513 272.208 86.0599 273.931 86.0599C274.584 86.0599 275.356 86.0001 276.248 85.8804C277.198 85.7009 278.059 85.4615 278.832 85.1623L279.723 88.7529C278.713 89.1718 277.465 89.501 275.98 89.7403C274.495 90.0396 273.218 90.1892 272.149 90.1892C269.654 90.1892 267.634 89.4411 266.09 87.945C264.604 86.3891 263.862 84.3245 263.862 81.7512V24.1215Z" fill="white"/>
<path d="M297.97 90.5482C295.832 90.5482 293.842 90.1892 292 89.471C290.159 88.6931 288.525 87.6757 287.1 86.419C285.733 85.1024 284.664 83.5764 283.892 81.8409C283.12 80.0456 282.733 78.1306 282.733 76.0959C282.733 74.0612 283.209 72.2061 284.159 70.5304C285.11 68.8548 286.416 67.4186 288.08 66.2217C289.802 64.965 291.852 64.0075 294.228 63.3492C296.604 62.631 299.218 62.272 302.069 62.272C304.564 62.272 307.059 62.5113 309.554 62.9901C312.108 63.409 314.395 64.0075 316.415 64.7854V60.2074C316.415 55.7789 315.168 52.278 312.673 49.7047C310.178 47.0716 306.792 45.755 302.515 45.755C300.257 45.755 297.852 46.2338 295.297 47.1913C292.802 48.1488 290.248 49.5252 287.634 51.3205L285.941 48.2685C291.881 44.1991 297.525 42.1644 302.871 42.1644C308.455 42.1644 312.851 43.8101 316.059 47.1015C319.266 50.3331 320.87 54.8214 320.87 60.5664V83.367C320.87 84.8631 321.524 85.6111 322.831 85.6111V89.6506C322.534 89.7104 322.207 89.7403 321.85 89.7403C321.553 89.8002 321.286 89.8301 321.049 89.8301C319.86 89.8301 318.91 89.4411 318.197 88.6632C317.484 87.8253 317.068 86.8379 316.95 85.7009V81.8409C314.811 84.6536 312.079 86.808 308.752 88.3041C305.425 89.8002 301.832 90.5482 297.97 90.5482ZM298.861 86.9576C302.307 86.9576 305.455 86.2993 308.306 84.9828C311.217 83.6662 313.445 81.9307 314.989 79.7763C315.94 78.5196 316.415 77.3227 316.415 76.1857V67.9272C314.277 67.0894 312.049 66.4611 309.732 66.0421C307.415 65.6232 305.01 65.4138 302.515 65.4138C300.198 65.4138 298.089 65.6831 296.188 66.2217C294.287 66.7004 292.654 67.3886 291.287 68.2863C289.921 69.1839 288.852 70.2911 288.08 71.6076C287.367 72.8644 287.01 74.2707 287.01 75.8266C287.01 77.3826 287.307 78.8487 287.901 80.2252C288.496 81.6016 289.327 82.7984 290.396 83.8158C291.466 84.7733 292.713 85.5513 294.139 86.1497C295.624 86.6883 297.198 86.9576 298.861 86.9576Z" fill="white"/>
<path d="M356.076 90.5482C352.453 90.5482 349.067 89.5907 345.919 87.6757C342.77 85.7607 340.305 83.3071 338.523 80.3149V89.6506H334.424V24.1215H338.879V53.1159C341.077 49.8843 343.661 47.2511 346.631 45.2164C349.661 43.1818 353.136 42.1644 357.057 42.1644C360.324 42.1644 363.264 42.8825 365.878 44.3188C368.551 45.6952 370.779 47.5504 372.561 49.8843C374.402 52.1583 375.798 54.7616 376.749 57.6939C377.759 60.5664 378.264 63.4988 378.264 66.491C378.264 69.7225 377.699 72.8045 376.571 75.7369C375.442 78.6094 373.868 81.1527 371.848 83.367C369.888 85.5213 367.541 87.2568 364.809 88.5734C362.136 89.89 359.225 90.5482 356.076 90.5482ZM355.185 86.5088C357.918 86.5088 360.413 85.9403 362.67 84.8032C364.928 83.6662 366.858 82.1701 368.462 80.3149C370.125 78.3999 371.403 76.2455 372.294 73.8518C373.244 71.458 373.719 69.0044 373.719 66.491C373.719 63.8578 373.274 61.3444 372.383 58.9506C371.551 56.497 370.333 54.3427 368.729 52.4875C367.185 50.5725 365.314 49.0465 363.116 47.9094C360.977 46.7724 358.601 46.2039 355.987 46.2039C354.027 46.2039 352.186 46.5629 350.463 47.2811C348.74 47.9393 347.136 48.837 345.651 49.974C344.226 51.1111 342.919 52.4276 341.731 53.9237C340.602 55.4198 339.651 56.9758 338.879 58.5916V74.0313C339.057 75.7668 339.711 77.4125 340.84 78.9684C341.968 80.4645 343.305 81.7811 344.849 82.9181C346.453 83.9953 348.176 84.8631 350.017 85.5213C351.859 86.1796 353.582 86.5088 355.185 86.5088Z" fill="white"/>
<path d="M441 46.2636C441 71.7403 420.347 92.3933 394.87 92.3933L394.87 46.2636L441 46.2636Z" fill="white"/>
<path d="M441 45.3411C441 58.0795 430.673 68.406 417.935 68.406C405.197 68.406 394.87 58.0795 394.87 45.3411C394.87 32.6027 405.197 22.2762 417.935 22.2762C430.673 22.2762 441 32.6027 441 45.3411Z" fill="white"/>
</svg>
